<?xml version="1.0" encoding="utf-8"?>
<!-- Generator: Adobe Illustrator 28.0.0, SVG Export Plug-In . SVG Version: 6.00 Build 0)  -->
<svg version="1.1" id="Group_3301" xmlns="http://www.w3.org/2000/svg" xmlns:xlink="http://www.w3.org/1999/xlink" x="0px" y="0px"
	 viewBox="0 0 273 42.5" style="enable-background:new 0 0 273 42.5;" xml:space="preserve">
<style type="text/css">
	.st0{fill:#FFC427;}
	.st1{fill:#190043;}
	.st2{fill:#1F0049;}
	.st3{fill:#190042;}
</style>
<polygon class="st0" points="42.6,42.4 0.2,42.4 0.2,0 42.6,0 42.6,42.4 "/>
<rect x="164.7" y="0.1" class="st0" width="108.6" height="42.3"/>
<path id="Subtraction_1" class="st1" d="M18.5,34.5H23l0.7,2H39L28.4,6H28L17.3,36.5h0.5L18.5,34.5L18.5,34.5z M27.1,6L27.1,6
	L16.4,36.5h0.5L27.5,6H27.1z M26.1,6L26.1,6L15.5,36.5h0.4L26.5,6H26.1L26.1,6z M25.1,6L25.1,6L14.5,36.5h0.4L25.6,6H25.1z M24.2,6
	L24.2,6L13.6,36.5H14L24.6,6H24.2z M23.3,6L23.3,6L12.6,36.5H13L23.7,6H23.3z M22.3,6L22.3,6L11.7,36.5h0.4L22.8,6H22.3L22.3,6z
	 M21.4,6L21.4,6L10.7,36.5h0.4L21.8,6H21.4L21.4,6z M20.5,6L20.5,6L9.8,36.5h0.4L20.8,6H20.5z M19.5,6L19.5,6L8.9,36.5h0.3L19.9,6
	H19.5L19.5,6z M18.6,6L18.6,6L7.9,36.5h0.4L18.9,6H18.6z M17.6,6L17.6,6L6.9,36.5h0.4L18,6H17.6z M16.7,6L16.7,6L6,36.5h0.3L17,6
	H16.7L16.7,6z M15.8,6L15.8,6L5.1,36.5h0.3L16.1,6H15.8L15.8,6z M14.8,6L14.8,6L4.1,36.5h0.3L15.1,6H14.8L14.8,6z M13.9,6L13.9,6
	L3.2,36.5h0.3L14.2,6H13.9L13.9,6z M12.9,6L12.9,6L2.3,36.5h0.3L13.2,6C13.2,6,12.9,6,12.9,6z M22.4,32.8h-3.3l1.7-4.7L22.4,32.8
	L22.4,32.8z"/>
<g id="Group_2326" transform="translate(48.149)">
	<path id="Path_8004" class="st2" d="M125.4,20.1v-6h8.7c2.9,0,5.1,0.1,5.1,2.6v0.7c0,2.4-1.9,2.7-4.7,2.7L125.4,20.1z M159.3,17
		l2.8,4.9h-5.7L159.3,17z M122.5,11.3v19.6h3l0-8.1h6.2l7.6,8.1h4l-7.6-8.1c4.3-0.2,6.6-1.9,6.6-5.4v-0.8c0-4.3-3.2-5.4-8.2-5.4
		L122.5,11.3z M154.8,24.5h8.8l3.7,6.4h3.4l-11.5-19.7l-11.5,19.7h3.4L154.8,24.5z M183.6,11.3c-8.4,0-11.3,3.9-11.3,9.8
		s2.9,9.8,11.3,9.8c3,0,6.4-0.6,8.5-2.3c0.5-0.4,0.8-0.9,1.2-1.4l0.1-0.1l-2.2-2.1l-0.1,0.2c0,0.1-0.1,0.2-0.1,0.2
		c-1.1,2.1-4.5,2.6-7.3,2.6c-6.4,0-8.3-2.4-8.3-7s1.9-7,8.3-7c2.8,0,6.2,0.5,7.3,2.6c0,0.1,0.1,0.2,0.1,0.2l0.1,0.3l2.2-2.1
		l-0.1-0.1c-0.3-0.5-0.7-1-1.2-1.4C190,11.9,186.6,11.3,183.6,11.3 M219.7,30.9l-17.4-10.3l18.2-9.3h-5.4c-0.2,0-0.5,0-0.7,0.1
		l-13.6,7l0-7.1h-2.9v19.6h2.9l0-8.1l13.8,8.1L219.7,30.9z"/>
</g>
<path id="Path_7994" class="st3" d="M57.6,31.9c-2.7,0-5.5-0.1-7.2-2.2c-0.4-0.5-0.7-1.2-0.9-1.9c-0.1-0.5-0.1-1.1-0.1-1.6v-1.1h2.9
	v1.2c0,0.3,0,0.6,0.1,0.8c0.3,1.9,2.7,1.9,4.8,1.9h3.9c2.1,0,4.3-0.1,4.6-1.9c0-0.3,0-0.6,0-0.8V26c0.1-1-0.6-2-1.6-2.2
	c-0.6-0.1-1.1-0.2-1.7-0.2c-0.6-0.1-1.3-0.1-2-0.1h-3c-2.7,0-5.6-0.1-7.2-2.1c-0.7-1-1.1-2.2-1-3.4v-0.4c0-4.2,3.3-5.2,8.2-5.2h2.9
	c2.7,0,5.6,0.1,7.2,2.1c0.4,0.6,0.7,1.2,0.9,1.9c0.1,0.5,0.1,1.1,0.1,1.7v1h-2.9v-1.2c0-0.3,0-0.6-0.1-0.9C65.3,15.1,63,15,60.8,15
	h-3.7c-1.5,0-3.7,0-4.5,1c-0.3,0.5-0.4,1.1-0.4,1.7l0,0.4c-0.1,1,0.6,2,1.6,2.2c0.6,0.2,1.1,0.2,1.7,0.3c0.6,0,1.3,0,2,0h3
	c2.7,0,5.6,0.1,7.2,2.1c0.7,1,1.1,2.2,1,3.4v0.4c0,4.3-3.4,5.3-8.2,5.3L57.6,31.9z"/>
<path id="Path_7995" class="st3" d="M80.5,31.9c-2.7,0-5.5-0.1-7.2-2.2c-0.4-0.5-0.7-1.2-0.9-1.9c-0.1-0.5-0.1-1.1-0.1-1.6v-1.1h2.9
	v1.2c0,0.3,0,0.6,0.1,0.8c0.3,1.9,2.7,1.9,4.8,1.9h3.9c2.1,0,4.3-0.1,4.6-1.9c0-0.3,0-0.6,0-0.8V26c0.1-1-0.6-2-1.6-2.2
	c-0.6-0.1-1.1-0.2-1.7-0.2c-0.6-0.1-1.3-0.1-2-0.1h-3c-2.7,0-5.6-0.1-7.2-2.1c-0.7-1-1.1-2.2-1-3.4v-0.4c0-4.2,3.3-5.2,8.2-5.2h2.9
	c2.7,0,5.6,0.1,7.2,2.1c0.4,0.6,0.7,1.2,0.9,1.9c0.1,0.5,0.1,1.1,0.1,1.7v1h-2.9v-1.2c0-0.3,0-0.6-0.1-0.9c-0.3-1.8-2.6-1.9-4.8-1.9
	H80c-1.5,0-3.7,0-4.5,1c-0.3,0.5-0.4,1.1-0.4,1.7l0,0.4c-0.1,1,0.6,2,1.6,2.2c0.6,0.2,1.1,0.2,1.7,0.3c0.6,0,1.3,0,2,0h3
	c2.7,0,5.6,0.1,7.2,2.1c0.7,1,1.1,2.2,1,3.4v0.4c0,4.3-3.4,5.3-8.2,5.3L80.5,31.9z"/>
<path id="Path_7996" class="st3" d="M98.1,20.4h12v2.8h-12v6h15.7v2.8H95.1V12.3h18.7v2.8H98.1V20.4z"/>
<path id="Path_7997" class="st3" d="M128.8,15.1v16.8h-2.9V15.1h-8.6v-2.8h20.1v2.8H128.8z"/>
<path id="Path_7998" class="st3" d="M149.1,31.9c-2.7,0-5.5-0.1-7.2-2.2c-0.4-0.5-0.7-1.2-0.9-1.9c-0.1-0.5-0.1-1.1-0.1-1.6v-1.1
	h2.9v1.2c0,0.3,0,0.6,0.1,0.8c0.3,1.9,2.7,1.9,4.8,1.9h3.9c2.1,0,4.3-0.1,4.6-1.9c0-0.3,0-0.6,0-0.8V26c0.1-1-0.6-2-1.6-2.2
	c-0.6-0.1-1.1-0.2-1.7-0.2c-0.6-0.1-1.3-0.1-2-0.1h-3c-2.7,0-5.6-0.1-7.2-2.1c-0.7-1-1.1-2.2-1-3.4v-0.4c0-4.2,3.3-5.2,8.2-5.2h2.9
	c2.7,0,5.6,0.1,7.2,2.1c0.4,0.6,0.7,1.2,0.9,1.9c0.1,0.5,0.1,1.1,0.1,1.7v1h-2.9v-1.2c0-0.3,0-0.6-0.1-0.9c-0.3-1.8-2.6-1.9-4.8-1.9
	h-3.7c-1.5,0-3.7,0-4.5,1c-0.3,0.5-0.4,1.1-0.4,1.7l0,0.4c-0.1,1,0.6,2,1.6,2.2c0.6,0.2,1.1,0.2,1.7,0.3c0.6,0,1.3,0,2,0h3
	c2.7,0,5.6,0.1,7.2,2.1c0.7,1,1.1,2.2,1,3.4v0.4c0,4.3-3.4,5.3-8.2,5.3L149.1,31.9z"/>
</svg>
